<svg width="185" height="75" viewBox="0 0 185 75" fill="none" xmlns="http://www.w3.org/2000/svg">
<path d="M89.38 33V19H92.6L96.88 27.74L101.12 19H104.34V33H101.64V23.6L97.94 31.04H95.8L92.08 23.6V33H89.38ZM113.555 33.24C112.195 33.24 110.995 32.9333 109.955 32.32C108.915 31.7067 108.102 30.86 107.515 29.78C106.928 28.6867 106.635 27.4267 106.635 26C106.635 24.5733 106.928 23.32 107.515 22.24C108.102 21.1467 108.915 20.2933 109.955 19.68C110.995 19.0667 112.195 18.76 113.555 18.76C114.928 18.76 116.135 19.0667 117.175 19.68C118.215 20.2933 119.022 21.1467 119.595 22.24C120.182 23.32 120.475 24.5733 120.475 26C120.475 27.4267 120.182 28.6867 119.595 29.78C119.022 30.86 118.215 31.7067 117.175 32.32C116.135 32.9333 114.928 33.24 113.555 33.24ZM113.555 30.82C114.408 30.82 115.142 30.6267 115.755 30.24C116.382 29.84 116.868 29.28 117.215 28.56C117.562 27.84 117.735 26.9867 117.735 26C117.735 25 117.562 24.1467 117.215 23.44C116.868 22.72 116.382 22.1667 115.755 21.78C115.142 21.3933 114.408 21.2 113.555 21.2C112.715 21.2 111.982 21.3933 111.355 21.78C110.728 22.1667 110.242 22.72 109.895 23.44C109.548 24.1467 109.375 25 109.375 26C109.375 26.9867 109.548 27.84 109.895 28.56C110.242 29.28 110.728 29.84 111.355 30.24C111.982 30.6267 112.715 30.82 113.555 30.82ZM122.778 33V19H127.458C129.085 19 130.425 19.2933 131.478 19.88C132.545 20.4533 133.332 21.2667 133.838 22.32C134.358 23.36 134.618 24.5867 134.618 26C134.618 27.4133 134.358 28.6467 133.838 29.7C133.332 30.74 132.552 31.5533 131.498 32.14C130.445 32.7133 129.098 33 127.458 33H122.778ZM125.478 30.68H127.318C128.465 30.68 129.365 30.4933 130.018 30.12C130.685 29.7467 131.158 29.2133 131.438 28.52C131.718 27.8133 131.858 26.9733 131.858 26C131.858 25.0133 131.718 24.1733 131.438 23.48C131.158 22.7733 130.685 22.2333 130.018 21.86C129.365 21.4867 128.465 21.3 127.318 21.3H125.478V30.68ZM136.919 33V19H146.119V21.18H139.619V24.84H145.519V26.94H139.619V30.82H146.119V33H136.919ZM148.579 33V19H153.799C154.933 19 155.866 19.1933 156.599 19.58C157.333 19.9667 157.879 20.4867 158.239 21.14C158.599 21.78 158.779 22.4933 158.779 23.28C158.779 24.0267 158.606 24.7267 158.259 25.38C157.913 26.02 157.366 26.54 156.619 26.94C155.886 27.3267 154.939 27.52 153.779 27.52H151.279V33H148.579ZM155.839 33L152.959 26.84H155.879L158.919 33H155.839ZM151.279 25.56H153.639C154.453 25.56 155.053 25.36 155.439 24.96C155.826 24.56 156.019 24.0333 156.019 23.38C156.019 22.7267 155.826 22.2133 155.439 21.84C155.066 21.4533 154.466 21.26 153.639 21.26H151.279V25.56ZM161.196 33V19H163.896L170.336 28.66V19H173.036V33H170.336L163.896 23.36V33H161.196Z" fill="#BC9B73"/>
<path d="M88.232 55L90.288 49.4H91.16L93.216 55H92.36L90.72 50.36L89.072 55H88.232ZM89.16 53.616L89.384 52.976H92.016L92.24 53.616H89.16ZM97.5655 55V49.4H99.4615C99.9042 49.4 100.267 49.4747 100.55 49.624C100.832 49.7733 101.04 49.9733 101.174 50.224C101.312 50.4693 101.382 50.7493 101.382 51.064C101.382 51.3627 101.312 51.64 101.174 51.896C101.04 52.1467 100.83 52.3493 100.542 52.504C100.254 52.6533 99.8855 52.728 99.4375 52.728H98.3655V55H97.5655ZM100.51 55L99.3015 52.512H100.182L101.438 55H100.51ZM98.3655 52.12H99.4135C99.8082 52.12 100.096 52.024 100.278 51.832C100.464 51.6347 100.558 51.384 100.558 51.08C100.558 50.7707 100.467 50.5253 100.286 50.344C100.104 50.1627 99.8108 50.072 99.4055 50.072H98.3655V52.12ZM108.36 55.096C107.827 55.096 107.365 54.976 106.976 54.736C106.587 54.4907 106.285 54.152 106.072 53.72C105.864 53.2827 105.76 52.776 105.76 52.2C105.76 51.6293 105.864 51.1253 106.072 50.688C106.285 50.2507 106.587 49.912 106.976 49.672C107.365 49.4267 107.827 49.304 108.36 49.304C109.005 49.304 109.531 49.4613 109.936 49.776C110.341 50.0907 110.597 50.5333 110.704 51.104H109.84C109.755 50.7733 109.589 50.5093 109.344 50.312C109.099 50.1147 108.768 50.016 108.352 50.016C107.989 50.016 107.675 50.104 107.408 50.28C107.141 50.456 106.936 50.7067 106.792 51.032C106.648 51.3573 106.576 51.7467 106.576 52.2C106.576 52.6533 106.648 53.0453 106.792 53.376C106.936 53.7013 107.141 53.952 107.408 54.128C107.675 54.2987 107.989 54.384 108.352 54.384C108.768 54.384 109.099 54.2907 109.344 54.104C109.589 53.912 109.755 53.6533 109.84 53.328H110.704C110.597 53.8827 110.341 54.3173 109.936 54.632C109.531 54.9413 109.005 55.096 108.36 55.096ZM118.783 55V49.4H119.583V55H118.783ZM115.223 55V49.4H116.023V55H115.223ZM115.887 52.472V51.816H118.959V52.472H115.887ZM124.321 55V49.4H125.121V55H124.321ZM131.152 55V50.056H129.496V49.4H133.616V50.056H131.952V55H131.152ZM137.986 55V49.4H141.522V50.056H138.786V51.848H141.282V52.488H138.786V54.344H141.522V55H137.986ZM148.499 55.096C147.966 55.096 147.505 54.976 147.115 54.736C146.726 54.4907 146.425 54.152 146.211 53.72C146.003 53.2827 145.899 52.776 145.899 52.2C145.899 51.6293 146.003 51.1253 146.211 50.688C146.425 50.2507 146.726 49.912 147.115 49.672C147.505 49.4267 147.966 49.304 148.499 49.304C149.145 49.304 149.67 49.4613 150.075 49.776C150.481 50.0907 150.737 50.5333 150.843 51.104H149.979C149.894 50.7733 149.729 50.5093 149.483 50.312C149.238 50.1147 148.907 50.016 148.491 50.016C148.129 50.016 147.814 50.104 147.547 50.28C147.281 50.456 147.075 50.7067 146.931 51.032C146.787 51.3573 146.715 51.7467 146.715 52.2C146.715 52.6533 146.787 53.0453 146.931 53.376C147.075 53.7013 147.281 53.952 147.547 54.128C147.814 54.2987 148.129 54.384 148.491 54.384C148.907 54.384 149.238 54.2907 149.483 54.104C149.729 53.912 149.894 53.6533 149.979 53.328H150.843C150.737 53.8827 150.481 54.3173 150.075 54.632C149.67 54.9413 149.145 55.096 148.499 55.096ZM156.548 55V50.056H154.892V49.4H159.012V50.056H157.348V55H156.548ZM165.414 55.096C165.024 55.096 164.67 55.0187 164.35 54.864C164.03 54.704 163.774 54.464 163.582 54.144C163.395 53.8187 163.302 53.4053 163.302 52.904V49.4H164.102V52.912C164.102 53.248 164.155 53.5253 164.262 53.744C164.374 53.9573 164.531 54.1173 164.734 54.224C164.936 54.3253 165.168 54.376 165.43 54.376C165.702 54.376 165.936 54.3253 166.134 54.224C166.331 54.1173 166.483 53.9573 166.59 53.744C166.702 53.5253 166.758 53.248 166.758 52.912V49.4H167.558V52.904C167.558 53.4053 167.462 53.8187 167.27 54.144C167.078 54.464 166.819 54.704 166.494 54.864C166.174 55.0187 165.814 55.096 165.414 55.096ZM172.206 55V49.4H174.102C174.545 49.4 174.908 49.4747 175.19 49.624C175.473 49.7733 175.681 49.9733 175.814 50.224C175.953 50.4693 176.022 50.7493 176.022 51.064C176.022 51.3627 175.953 51.64 175.814 51.896C175.681 52.1467 175.47 52.3493 175.182 52.504C174.894 52.6533 174.526 52.728 174.078 52.728H173.006V55H172.206ZM175.15 55L173.942 52.512H174.822L176.078 55H175.15ZM173.006 52.12H174.054C174.449 52.12 174.737 52.024 174.918 51.832C175.105 51.6347 175.198 51.384 175.198 51.08C175.198 50.7707 175.108 50.5253 174.926 50.344C174.745 50.1627 174.452 50.072 174.046 50.072H173.006V52.12ZM180.617 55V49.4H184.153V50.056H181.417V51.848H183.913V52.488H181.417V54.344H184.153V55H180.617Z" fill="#BC9B73"/>
<path d="M1 73.5V26.2961H48.2039V73.5H1ZM1 73.5L21.1311 53.3689M21.1311 53.3689V20.7427L44.0388 2L66.9466 20.7427V53.3689H21.1311Z" stroke="#BC9B73" stroke-width="2"/>
</svg>
