<svg width="219" height="219" viewBox="0 0 219 219" fill="none" xmlns="http://www.w3.org/2000/svg">
<g clip-path="url(#clip0_86_265)">
<path d="M86.3849 12.4789L86.6346 13.5437L82.2977 14.5607L82.048 13.4958L86.3849 12.4789Z" fill="black"/>
<path d="M54.8805 32.1979C54.3031 32.5746 53.7069 32.7678 53.0918 32.7773C52.4794 32.7851 51.89 32.6216 51.3233 32.2869C50.7594 31.9504 50.2619 31.4518 49.8309 30.7912C49.3962 30.125 49.1375 29.4647 49.0547 28.8103C48.9748 28.1541 49.0617 27.5473 49.3154 26.9899C49.5719 26.4308 49.9888 25.9628 50.5661 25.5861C51.1435 25.2093 51.7383 25.0171 52.3507 25.0093C52.9658 24.9998 53.5561 25.1646 54.1218 25.5039C54.6903 25.8414 55.1919 26.3432 55.6266 27.0094C56.0577 27.67 56.3123 28.3271 56.3904 28.9805C56.4713 29.6322 56.3835 30.2376 56.127 30.7968C55.8733 31.3541 55.4578 31.8211 54.8805 32.1979ZM54.3045 31.3152C54.7431 31.029 55.0305 30.6811 55.167 30.2716C55.3034 29.862 55.32 29.4296 55.217 28.9745C55.1139 28.5193 54.9229 28.078 54.644 27.6506C54.3651 27.2231 54.0371 26.8692 53.6602 26.5887C53.2833 26.3083 52.8791 26.1467 52.4474 26.1038C52.0158 26.0609 51.5807 26.1826 51.1421 26.4688C50.7035 26.7549 50.4169 27.1042 50.2823 27.5165C50.1477 27.9289 50.1329 28.364 50.2378 28.822C50.3426 29.2799 50.5345 29.7226 50.8135 30.15C51.0924 30.5775 51.4194 30.9301 51.7945 31.2077C52.1696 31.4854 52.5721 31.6442 53.0019 31.6843C53.4317 31.7244 53.8659 31.6014 54.3045 31.3152Z" fill="black"/>
<path d="M41.5998 43.6233C41.0699 44.1337 40.5 44.457 39.8903 44.5932C39.2808 44.7247 38.6687 44.6792 38.054 44.4566C37.4395 44.2294 36.8609 43.8341 36.3183 43.2707C35.7757 42.7073 35.4002 42.1118 35.1917 41.4844C34.9832 40.8523 34.9479 40.2375 35.0858 39.64C35.2237 39.0378 35.5409 38.4976 36.0375 38.0194C36.324 37.7435 36.6528 37.5188 37.0241 37.3453C37.3954 37.1718 37.7991 37.0822 38.2352 37.0763C38.669 37.0681 39.1229 37.1739 39.597 37.3938C40.071 37.6137 40.5552 37.9803 41.0495 38.4936L41.3944 38.8517L37.1544 42.9348L36.4509 42.2043L39.8314 38.9488C39.5325 38.6384 39.2038 38.4213 38.8451 38.2973C38.4888 38.1711 38.1295 38.1467 37.767 38.2243C37.407 38.2995 37.0742 38.4843 36.7686 38.7786C36.432 39.1028 36.2212 39.4668 36.1362 39.8707C36.0514 40.27 36.0709 40.6653 36.1948 41.0567C36.3187 41.4482 36.5266 41.7955 36.8186 42.0987L37.2876 42.5857C37.6876 43.0011 38.0984 43.2843 38.5198 43.4352C38.9413 43.5814 39.3534 43.6056 39.7561 43.5077C40.1565 43.4074 40.5273 43.1929 40.8687 42.8641C41.0908 42.6503 41.2614 42.4262 41.3807 42.1917C41.5 41.9525 41.5645 41.7064 41.5739 41.4534C41.5811 41.198 41.5285 40.9404 41.4162 40.6804L42.4534 40.1233C42.6341 40.483 42.7242 40.8656 42.7236 41.2711C42.7207 41.6743 42.6263 42.078 42.4406 42.4824C42.2525 42.8843 41.9723 43.2647 41.5998 43.6233Z" fill="black"/>
<path d="M29.9549 58.2904C29.5883 58.8106 29.1334 59.1772 28.5899 59.3904C28.0438 59.6016 27.4504 59.6497 26.8096 59.5348C26.1662 59.418 25.5139 59.1267 24.8528 58.6609C24.1971 58.1989 23.7074 57.6856 23.3835 57.1209C23.0597 56.5563 22.9076 55.9808 22.9274 55.3947C22.9471 54.8085 23.1421 54.2526 23.5124 53.727C23.7988 53.3205 24.0927 53.0472 24.3943 52.9069C24.695 52.762 24.9747 52.6874 25.2332 52.683C25.4909 52.6741 25.6987 52.6725 25.8567 52.6784L25.914 52.5971L22.8415 50.4324L23.5173 49.4732L31.8407 55.3376L31.1878 56.2642L30.2287 55.5884L30.1485 55.7022C30.2127 55.8528 30.2856 56.0543 30.3674 56.3065C30.4465 56.5568 30.4688 56.8503 30.4344 57.1869C30.3972 57.5215 30.2374 57.8894 29.9549 58.2904ZM29.1849 57.5533C29.456 57.1685 29.5848 56.7728 29.5714 56.366C29.5552 55.9573 29.417 55.5578 29.1567 55.1677C28.8937 54.7756 28.5265 54.4135 28.0551 54.0813C27.5891 53.753 27.1336 53.5334 26.6886 53.4226C26.2409 53.3099 25.826 53.3176 25.4438 53.4457C25.059 53.5719 24.7291 53.8301 24.4542 54.2202C24.1679 54.6266 24.0336 55.0388 24.0513 55.4567C24.0682 55.8701 24.2064 56.2695 24.4659 56.655C24.7246 57.036 25.0734 57.3811 25.5123 57.6903C25.9567 58.0034 26.4081 58.2201 26.8666 58.3404C27.3243 58.4561 27.7547 58.4553 28.1578 58.3378C28.56 58.2158 28.9024 57.9543 29.1849 57.5533Z" fill="black"/>
<path d="M24.5125 67.7589L17.7309 64.2484L18.2703 63.2064L25.0519 66.717L24.5125 67.7589ZM16.8749 63.1335C16.7698 63.3366 16.61 63.4759 16.3955 63.5515C16.1825 63.6241 15.9788 63.6101 15.7846 63.5096C15.5903 63.409 15.4613 63.2508 15.3976 63.0349C15.3355 62.8162 15.357 62.6052 15.4621 62.4021C15.5672 62.199 15.7263 62.0612 15.9393 61.9886C16.1538 61.913 16.3582 61.9255 16.5525 62.0261C16.7468 62.1266 16.875 62.2863 16.9371 62.5051C17.0008 62.7209 16.9801 62.9304 16.8749 63.1335Z" fill="black"/>
<path d="M7.92213 82.5633L17.0101 82.4733L17.0487 82.3604L9.91481 76.7295L10.3326 75.5063L18.7594 82.3354L18.348 83.5398L7.50431 83.7866L7.92213 82.5633Z" fill="black"/>
<path d="M17.5758 111.369C17.5678 111.567 17.5441 111.744 17.5048 111.898C17.4687 112.053 17.4346 112.159 17.4024 112.218L16.3811 111.878C16.4654 111.596 16.502 111.346 16.4909 111.126C16.4798 110.907 16.3899 110.709 16.2211 110.533C16.0558 110.354 15.7823 110.186 15.4005 110.028L14.8132 109.785L7.03 112.299L7.08104 111.027L13.2459 109.165L13.2491 109.085L7.2533 106.735L7.30434 105.463L15.9173 109.053C16.3056 109.215 16.6245 109.408 16.8742 109.634C17.1272 109.86 17.3109 110.118 17.4253 110.407C17.5398 110.694 17.59 111.014 17.5758 111.369Z" fill="black"/>
<path d="M16.5134 126.637C16.5804 127.116 16.5509 127.564 16.425 127.98C16.2958 128.396 16.0749 128.743 15.7623 129.021C15.4465 129.299 15.0424 129.473 14.55 129.542C14.1168 129.602 13.7536 129.566 13.4606 129.433C13.1643 129.3 12.919 129.102 12.7248 128.838C12.5306 128.574 12.3717 128.275 12.248 127.941C12.1206 127.604 12.0094 127.263 11.9144 126.918C11.791 126.467 11.6947 126.101 11.6252 125.819C11.552 125.535 11.4685 125.332 11.3746 125.212C11.2803 125.088 11.1396 125.039 10.9525 125.065L10.9131 125.07C10.4273 125.138 10.0684 125.324 9.83641 125.627C9.60395 125.928 9.52511 126.345 9.5999 126.88C9.67743 127.435 9.85967 127.853 10.1466 128.134C10.4336 128.415 10.7239 128.601 11.0175 128.69L10.7777 129.848C10.2907 129.715 9.89616 129.503 9.59425 129.21C9.28859 128.915 9.05759 128.579 8.90124 128.203C8.74114 127.824 8.63449 127.444 8.58127 127.063C8.54732 126.82 8.53786 126.537 8.5529 126.213C8.5642 125.887 8.63783 125.564 8.7738 125.244C8.9093 124.92 9.14219 124.635 9.47245 124.388C9.80271 124.141 10.2682 123.976 10.8689 123.892L15.8517 123.195L16.0141 124.357L14.99 124.501L14.9982 124.56C15.1734 124.615 15.3673 124.722 15.5801 124.88C15.7929 125.038 15.9863 125.26 16.1603 125.547C16.3342 125.834 16.452 126.197 16.5134 126.637ZM15.4448 126.606C15.3806 126.146 15.2362 125.771 15.0116 125.481C14.7866 125.188 14.52 124.981 14.212 124.86C13.9035 124.736 13.5916 124.696 13.2765 124.74L12.213 124.889C12.279 124.93 12.3483 125.03 12.4209 125.191C12.4898 125.349 12.5574 125.533 12.6238 125.745C12.6865 125.954 12.7451 126.158 12.7998 126.358C12.8508 126.555 12.8932 126.715 12.9271 126.837C13.0087 127.133 13.1121 127.407 13.2375 127.657C13.359 127.904 13.5181 128.096 13.7145 128.233C13.9072 128.367 14.1513 128.413 14.4467 128.372C14.8505 128.315 15.1349 128.123 15.2999 127.795C15.4612 127.465 15.5095 127.068 15.4448 126.606Z" fill="black"/>
<path d="M8.64489 138.118L18.4663 135.433L18.7757 136.564L8.95429 139.249L8.64489 138.118Z" fill="black"/>
<path d="M25.4547 153.66L16.1054 157.693L14.7429 154.534C14.4266 153.8 14.3004 153.144 14.3643 152.564C14.4239 151.982 14.6289 151.482 14.9791 151.064C15.3294 150.646 15.7799 150.318 16.3308 150.08C16.8816 149.843 17.4308 149.74 17.9784 149.771C18.5246 149.798 19.0321 149.987 19.5007 150.338C19.9663 150.689 20.356 151.228 20.6697 151.956L21.6463 154.22L20.6419 154.653L19.6811 152.425C19.4645 151.923 19.2039 151.557 18.8992 151.328C18.5944 151.098 18.2649 150.979 17.9106 150.969C17.552 150.958 17.1855 151.033 16.8112 151.194C16.4368 151.356 16.1323 151.57 15.8974 151.838C15.6613 152.102 15.5258 152.424 15.491 152.803C15.4531 153.184 15.5438 153.629 15.763 154.137L16.6214 156.127L24.9665 152.528L25.4547 153.66Z" fill="black"/>
<path d="M37.9068 178.783L38.6986 178.029L41.7715 181.254L40.9796 182.008L37.9068 178.783Z" fill="black"/>
<path d="M70.8626 195.967C71.4798 196.274 71.9482 196.69 72.2679 197.216C72.5846 197.74 72.7421 198.331 72.7404 198.989C72.7358 199.646 72.5577 200.327 72.2063 201.033C71.8519 201.745 71.4135 202.303 70.891 202.706C70.3656 203.107 69.7983 203.339 69.1892 203.402C68.5772 203.464 67.9626 203.342 67.3454 203.035C66.7282 202.728 66.2612 202.312 65.9445 201.788C65.6248 201.262 65.468 200.67 65.4742 200.01C65.4774 199.349 65.6562 198.662 66.0105 197.95C66.362 197.244 66.7996 196.692 67.3236 196.294C67.8446 195.894 68.4111 195.663 69.0232 195.601C69.6322 195.538 70.2454 195.659 70.8626 195.967ZM70.393 196.91C69.9242 196.677 69.4786 196.605 69.0564 196.695C68.6341 196.785 68.2528 196.989 67.9125 197.308C67.5722 197.628 67.2884 198.016 67.061 198.473C66.8336 198.93 66.6944 199.392 66.6434 199.859C66.5924 200.326 66.6577 200.756 66.8393 201.15C67.0209 201.544 67.3461 201.858 67.8149 202.091C68.2838 202.324 68.7301 202.395 69.1538 202.302C69.5775 202.209 69.9603 202.002 70.3021 201.679C70.6439 201.357 70.9285 200.968 71.1559 200.511C71.3832 200.054 71.5217 199.593 71.5712 199.129C71.6207 198.665 71.5539 198.238 71.3709 197.847C71.1878 197.456 70.8619 197.143 70.393 196.91Z" fill="black"/>
<path d="M87.4396 201.635C88.1481 201.833 88.7154 202.161 89.1416 202.618C89.5636 203.077 89.8343 203.628 89.9536 204.27C90.0688 204.915 90.0208 205.614 89.8097 206.368C89.5986 207.121 89.2753 207.746 88.8398 208.244C88.4002 208.743 87.8879 209.085 87.3029 209.269C86.7138 209.455 86.0873 209.455 85.4235 209.269C85.0405 209.161 84.6803 208.991 84.3427 208.759C84.005 208.527 83.7233 208.224 83.4975 207.851C83.2707 207.481 83.1321 207.036 83.0817 206.516C83.0314 205.996 83.1023 205.393 83.2947 204.706L83.4289 204.228L89.0967 205.817L88.823 206.793L84.304 205.526C84.1877 205.941 84.1669 206.335 84.2416 206.707C84.3131 207.078 84.4741 207.4 84.7245 207.673C84.9717 207.946 85.2995 208.139 85.708 208.254C86.158 208.38 86.5786 208.377 86.97 208.246C87.3572 208.117 87.6883 207.9 87.9631 207.595C88.2379 207.29 88.4322 206.935 88.5458 206.53L88.7283 205.879C88.8839 205.323 88.9202 204.826 88.8369 204.386C88.7496 203.948 88.5618 203.581 88.2735 203.283C87.9843 202.989 87.6115 202.777 87.1551 202.649C86.8584 202.566 86.5786 202.533 86.316 202.548C86.0493 202.567 85.8045 202.636 85.5816 202.756C85.3577 202.879 85.1622 203.054 84.9949 203.283L83.9893 202.671C84.208 202.333 84.4923 202.061 84.8423 201.856C85.1914 201.655 85.5873 201.532 86.0301 201.487C86.4719 201.446 86.9418 201.495 87.4396 201.635Z" fill="black"/>
<path d="M105.984 204.25C106.618 204.303 107.165 204.509 107.624 204.87C108.083 205.234 108.425 205.721 108.65 206.332C108.875 206.946 108.954 207.656 108.887 208.462C108.821 209.261 108.626 209.944 108.303 210.509C107.98 211.074 107.561 211.496 107.045 211.776C106.53 212.056 105.952 212.169 105.311 212.116C104.816 212.075 104.431 211.96 104.157 211.771C103.88 211.585 103.674 211.381 103.539 211.161C103.401 210.943 103.295 210.765 103.22 210.625L103.121 210.617L102.81 214.363L101.64 214.266L102.483 204.119L103.613 204.213L103.516 205.382L103.654 205.393C103.752 205.262 103.888 205.097 104.065 204.899C104.24 204.704 104.482 204.536 104.79 204.395C105.097 204.258 105.495 204.209 105.984 204.25ZM105.738 205.287C105.269 205.248 104.863 205.337 104.519 205.555C104.175 205.776 103.9 206.097 103.695 206.519C103.491 206.945 103.364 207.445 103.316 208.019C103.269 208.587 103.311 209.091 103.44 209.531C103.57 209.974 103.787 210.328 104.091 210.593C104.394 210.861 104.784 211.015 105.259 211.054C105.755 211.095 106.178 211.002 106.53 210.776C106.878 210.552 107.152 210.23 107.353 209.811C107.551 209.395 107.672 208.92 107.716 208.385C107.761 207.843 107.719 207.344 107.591 206.888C107.459 206.434 107.24 206.064 106.935 205.776C106.626 205.491 106.227 205.328 105.738 205.287Z" fill="black"/>
<path d="M116.905 204.149L117.311 211.775L116.14 211.837L115.733 204.211L116.905 204.149ZM116.783 213.077C117.012 213.065 117.213 213.132 117.386 213.279C117.557 213.426 117.648 213.609 117.66 213.827C117.671 214.046 117.6 214.237 117.446 214.401C117.289 214.565 117.096 214.654 116.868 214.666C116.639 214.678 116.44 214.611 116.27 214.464C116.096 214.317 116.003 214.134 115.991 213.916C115.98 213.698 116.053 213.506 116.21 213.342C116.364 213.178 116.555 213.089 116.783 213.077Z" fill="black"/>
<path d="M138.071 210.96L133.392 203.168L133.275 203.192L132.032 212.195L130.765 212.454L132.388 201.73L133.635 201.475L139.338 210.701L138.071 210.96Z" fill="black"/>
<path d="M158.024 188.05C158.199 187.956 158.364 187.887 158.517 187.843C158.668 187.796 158.777 187.772 158.844 187.77L159.068 188.822C158.782 188.893 158.548 188.988 158.364 189.109C158.181 189.229 158.056 189.407 157.989 189.641C157.919 189.875 157.912 190.196 157.969 190.605L158.057 191.234L164.166 196.673L163.043 197.273L158.316 192.9L158.246 192.937L159.255 199.298L158.132 199.898L156.867 190.653C156.81 190.236 156.815 189.863 156.883 189.534C156.95 189.201 157.079 188.912 157.271 188.667C157.46 188.423 157.711 188.217 158.024 188.05Z" fill="black"/>
<path d="M171.728 181.236C172.107 180.935 172.508 180.734 172.93 180.632C173.355 180.533 173.766 180.547 174.164 180.676C174.564 180.808 174.918 181.068 175.227 181.458C175.498 181.801 175.651 182.132 175.685 182.452C175.72 182.775 175.673 183.087 175.544 183.388C175.415 183.689 175.237 183.978 175.012 184.254C174.786 184.534 174.548 184.803 174.299 185.059C173.972 185.394 173.705 185.663 173.498 185.865C173.289 186.072 173.157 186.247 173.101 186.389C173.041 186.533 173.07 186.679 173.188 186.827L173.212 186.858C173.517 187.243 173.859 187.458 174.238 187.505C174.615 187.553 175.015 187.41 175.438 187.074C175.877 186.726 176.145 186.358 176.243 185.968C176.34 185.578 176.353 185.234 176.281 184.935L177.401 184.556C177.533 185.043 177.55 185.491 177.45 185.899C177.35 186.312 177.178 186.682 176.932 187.007C176.686 187.337 176.413 187.622 176.111 187.86C175.919 188.012 175.68 188.164 175.393 188.315C175.106 188.47 174.79 188.57 174.445 188.615C174.098 188.662 173.734 188.606 173.354 188.446C172.973 188.286 172.595 187.969 172.218 187.493L169.095 183.549L170.015 182.82L170.657 183.631L170.704 183.594C170.663 183.415 170.657 183.193 170.685 182.93C170.713 182.667 170.807 182.387 170.966 182.092C171.126 181.797 171.38 181.511 171.728 181.236ZM172.242 182.173C171.878 182.461 171.628 182.775 171.492 183.116C171.353 183.458 171.309 183.793 171.361 184.12C171.41 184.449 171.533 184.738 171.731 184.987L172.398 185.829C172.399 185.752 172.451 185.641 172.553 185.497C172.654 185.358 172.779 185.206 172.928 185.041C173.076 184.882 173.223 184.728 173.367 184.579C173.511 184.436 173.628 184.318 173.716 184.227C173.93 184.007 174.114 183.779 174.266 183.544C174.418 183.314 174.503 183.08 174.521 182.841C174.539 182.607 174.455 182.373 174.27 182.14C174.017 181.82 173.707 181.672 173.341 181.695C172.975 181.724 172.608 181.883 172.242 182.173Z" fill="black"/>
<path d="M185.612 182.208L178.324 175.098L179.143 174.259L186.431 181.369L185.612 182.208Z" fill="black"/>
<path d="M190.505 159.843L198.715 165.863L196.681 168.638C196.209 169.282 195.706 169.723 195.174 169.962C194.642 170.205 194.108 170.281 193.57 170.191C193.032 170.101 192.521 169.878 192.037 169.523C191.553 169.169 191.186 168.747 190.936 168.259C190.683 167.774 190.589 167.241 190.654 166.66C190.721 166.08 190.989 165.471 191.457 164.832L192.915 162.844L193.798 163.49L192.363 165.447C192.04 165.888 191.856 166.298 191.812 166.677C191.769 167.056 191.832 167.401 192.004 167.711C192.175 168.026 192.426 168.304 192.754 168.545C193.083 168.786 193.422 168.94 193.772 169.007C194.119 169.077 194.465 169.031 194.81 168.869C195.158 168.709 195.495 168.405 195.823 167.959L197.104 166.211L189.775 160.837L190.505 159.843Z" fill="black"/>
<path d="M205.864 136.385L204.813 136.084L206.038 131.801L207.089 132.102L205.864 136.385Z" fill="black"/>
<path d="M203.995 99.2647C203.948 98.577 204.07 97.9622 204.361 97.4204C204.653 96.8819 205.083 96.4468 205.651 96.1151C206.22 95.7866 206.897 95.5951 207.684 95.5406C208.478 95.4856 209.181 95.5815 209.792 95.8281C210.404 96.0781 210.892 96.4496 211.255 96.9428C211.618 97.4392 211.824 98.0313 211.871 98.719C211.919 99.4068 211.797 100.02 211.506 100.558C211.214 101.1 210.783 101.535 210.211 101.864C209.639 102.196 208.956 102.39 208.163 102.445C207.376 102.499 206.678 102.401 206.069 102.151C205.461 101.904 204.975 101.532 204.612 101.036C204.248 100.543 204.043 99.9525 203.995 99.2647ZM205.047 99.1919C205.083 99.7143 205.247 100.135 205.538 100.454C205.829 100.772 206.199 100.998 206.646 101.129C207.094 101.261 207.572 101.309 208.082 101.274C208.591 101.239 209.06 101.125 209.488 100.932C209.917 100.74 210.255 100.466 210.503 100.11C210.75 99.7535 210.856 99.3143 210.82 98.7919C210.784 98.2695 210.618 97.849 210.324 97.5305C210.029 97.2121 209.657 96.9871 209.206 96.8555C208.755 96.724 208.275 96.6758 207.765 96.7111C207.256 96.7464 206.789 96.8602 206.364 97.0524C205.939 97.2447 205.604 97.5187 205.359 97.8745C205.115 98.2303 205.011 98.6695 205.047 99.1919Z" fill="black"/>
<path d="M200.49 82.0998C200.303 81.3883 200.298 80.7332 200.476 80.1344C200.658 79.538 200.996 79.0257 201.49 78.5974C201.988 78.1714 202.615 77.8588 203.372 77.6596C204.128 77.4603 204.831 77.4225 205.48 77.5461C206.134 77.6721 206.688 77.9409 207.143 78.3524C207.601 78.7662 207.918 79.3065 208.094 79.9731C208.195 80.3577 208.231 80.7544 208.202 81.1632C208.173 81.572 208.054 81.9682 207.847 82.3519C207.643 82.7347 207.329 83.0795 206.906 83.3863C206.483 83.6931 205.927 83.9373 205.238 84.1188L204.757 84.2455L203.257 78.5534L204.238 78.295L205.434 82.8333C205.851 82.7235 206.2 82.5423 206.483 82.2895C206.767 82.0399 206.964 81.738 207.072 81.3837C207.182 81.0326 207.183 80.6519 207.075 80.2417C206.956 79.7897 206.741 79.4283 206.429 79.1573C206.122 78.8886 205.767 78.713 205.365 78.6305C204.963 78.5479 204.558 78.5603 204.151 78.6675L203.497 78.8398C202.94 78.9867 202.492 79.2074 202.155 79.5018C201.822 79.7987 201.6 80.1468 201.489 80.5461C201.382 80.9446 201.389 81.373 201.509 81.8313C201.588 82.1294 201.7 82.3876 201.847 82.6061C201.998 82.8268 202.181 83.003 202.398 83.1345C202.617 83.2652 202.868 83.3448 203.149 83.3734L203.131 84.5506C202.728 84.5332 202.35 84.4254 201.997 84.2273C201.646 84.0283 201.339 83.7492 201.077 83.39C200.817 83.0299 200.622 82.5998 200.49 82.0998Z" fill="black"/>
<path d="M193.356 64.7844C193.081 64.2108 192.982 63.6349 193.061 63.0565C193.142 62.4766 193.39 61.9349 193.802 61.4314C194.218 60.9265 194.79 60.4988 195.519 60.1485C196.242 59.801 196.929 59.6234 197.579 59.6158C198.23 59.6082 198.807 59.7558 199.309 60.0586C199.811 60.3614 200.202 60.8026 200.48 61.3821C200.696 61.8302 200.791 62.2201 200.767 62.5518C200.747 62.885 200.676 63.1656 200.554 63.3935C200.436 63.6229 200.336 63.8051 200.254 63.9402L200.297 64.0299L203.684 62.4016L204.193 63.4591L195.016 67.87L194.525 66.8483L195.582 66.3401L195.522 66.2146C195.359 66.1972 195.148 66.1628 194.888 66.1113C194.631 66.0584 194.363 65.9349 194.086 65.7408C193.812 65.5453 193.569 65.2265 193.356 64.7844ZM194.375 64.4712C194.579 64.8954 194.862 65.2007 195.224 65.3872C195.588 65.5723 196.004 65.6462 196.472 65.609C196.943 65.5704 197.438 65.4262 197.957 65.1763C198.471 64.9294 198.885 64.6386 199.199 64.304C199.515 63.968 199.711 63.6019 199.785 63.2058C199.862 62.8082 199.798 62.3944 199.591 61.9642C199.375 61.5161 199.081 61.198 198.707 61.0098C198.338 60.8232 197.922 60.7493 197.459 60.788C197 60.8283 196.529 60.9647 196.045 61.1973C195.555 61.4328 195.146 61.7214 194.817 62.0632C194.493 62.4065 194.284 62.7828 194.19 63.1919C194.101 63.6026 194.163 64.0291 194.375 64.4712Z" fill="black"/>
<path d="M187.74 55.4178L194.11 51.2063L194.757 52.1851L188.387 56.3965L187.74 55.4178ZM195.5 51.0021C195.374 50.8113 195.331 50.6039 195.369 50.3797C195.409 50.1583 195.521 49.9873 195.703 49.8667C195.886 49.746 196.087 49.7105 196.306 49.7601C196.528 49.8124 196.701 49.934 196.828 50.1247C196.954 50.3155 196.997 50.5216 196.956 50.743C196.918 50.9671 196.807 51.1395 196.625 51.2601C196.442 51.3808 196.24 51.4149 196.019 51.3626C195.799 51.313 195.627 51.1929 195.5 51.0021Z" fill="black"/>
<path d="M182.896 33.7166L178.546 41.6966L178.626 41.7853L187.019 38.2994L187.884 39.2603L177.814 43.2914L176.963 42.3453L182.031 32.7557L182.896 33.7166Z" fill="black"/>
<path d="M153.038 28.1104C152.868 28.0066 152.725 27.8999 152.61 27.7903C152.492 27.6836 152.416 27.6019 152.381 27.5453L153.175 26.8189C153.38 27.0299 153.581 27.184 153.778 27.2812C153.975 27.3784 154.191 27.3962 154.427 27.3346C154.664 27.2775 154.945 27.1208 155.269 26.8644L155.767 26.4696L157.364 18.4481L158.45 19.1123L157.072 25.4032L157.14 25.4447L162.114 21.3541L163.199 22.0183L155.868 27.7904C155.537 28.0507 155.213 28.2349 154.894 28.343C154.574 28.4539 154.259 28.4887 153.95 28.4474C153.644 28.4078 153.34 28.2955 153.038 28.1104Z" fill="black"/>
<path d="M140.222 19.7429C139.771 19.5679 139.395 19.3241 139.093 19.0115C138.792 18.6958 138.597 18.3337 138.507 17.9254C138.417 17.5139 138.463 17.0764 138.642 16.6129C138.801 16.2051 139.009 15.9056 139.268 15.7146C139.529 15.5204 139.821 15.4029 140.146 15.362C140.472 15.3211 140.81 15.328 141.162 15.3828C141.518 15.4357 141.87 15.5047 142.218 15.5897C142.672 15.7019 143.039 15.7963 143.318 15.8728C143.602 15.9474 143.82 15.9731 143.971 15.95C144.125 15.9281 144.237 15.829 144.305 15.6529L144.319 15.6158C144.497 15.1585 144.509 14.7546 144.357 14.4041C144.209 14.0548 143.882 13.7825 143.379 13.5871C142.856 13.3845 142.403 13.34 142.017 13.4535C141.632 13.5671 141.329 13.7303 141.107 13.9431L140.213 13.1695C140.566 12.8088 140.944 12.5679 141.347 12.4468C141.754 12.3238 142.159 12.2857 142.564 12.3326C142.973 12.3775 143.357 12.4696 143.716 12.6086C143.944 12.6973 144.196 12.827 144.471 12.9978C144.751 13.1666 144.997 13.3884 145.21 13.6631C145.427 13.9391 145.562 14.2814 145.617 14.6901C145.672 15.0989 145.589 15.586 145.37 16.1515L143.55 20.842L142.456 20.4177L142.83 19.4536L142.775 19.432C142.641 19.5577 142.453 19.6751 142.212 19.7841C141.97 19.8931 141.682 19.9536 141.347 19.9657C141.011 19.9779 140.636 19.9036 140.222 19.7429ZM140.771 18.8251C141.203 18.9929 141.601 19.0494 141.963 18.9945C142.329 18.9409 142.64 18.809 142.895 18.5989C143.154 18.39 143.341 18.1373 143.456 17.8406L143.845 16.8395C143.777 16.8771 143.655 16.8885 143.479 16.8737C143.308 16.857 143.114 16.8261 142.897 16.781C142.684 16.734 142.477 16.6857 142.276 16.6361C142.079 16.5846 141.919 16.5438 141.795 16.5137C141.497 16.4404 141.207 16.3976 140.928 16.3851C140.653 16.3707 140.408 16.4161 140.193 16.5211C139.982 16.6242 139.823 16.8149 139.715 17.093C139.567 17.473 139.596 17.8149 139.802 18.1187C140.012 18.4206 140.335 18.656 140.771 18.8251Z" fill="black"/>
<path d="M134.031 7.27756L131.59 17.1624L130.451 16.8811L132.892 6.99626L134.031 7.27756Z" fill="black"/>
<path d="M112.267 14.3829L113.302 4.25378L116.724 4.60334C117.519 4.6845 118.154 4.89427 118.629 5.23266C119.108 5.56808 119.444 5.9906 119.639 6.50022C119.833 7.00983 119.9 7.56304 119.839 8.15984C119.778 8.75664 119.601 9.28658 119.307 9.74965C119.017 10.2131 118.604 10.5641 118.07 10.8027C117.536 11.038 116.875 11.1155 116.087 11.035L113.634 10.7844L113.745 9.69634L116.159 9.94285C116.703 9.99841 117.149 9.94906 117.498 9.7948C117.847 9.64053 118.112 9.41106 118.293 9.10638C118.478 8.79874 118.591 8.44214 118.632 8.03658C118.674 7.63102 118.635 7.26058 118.516 6.92526C118.4 6.59027 118.185 6.3151 117.871 6.09973C117.557 5.88108 117.124 5.74363 116.574 5.68739L114.417 5.46714L113.494 14.5082L112.267 14.3829Z" fill="black"/>
</g>
<defs>
<clipPath id="clip0_86_265">
<rect width="218.348" height="218.358" fill="white" transform="translate(0.652344 0.330078)"/>
</clipPath>
</defs>
</svg>
