<svg width="97" height="51" viewBox="0 0 97 51" fill="none" xmlns="http://www.w3.org/2000/svg">
<path fill-rule="evenodd" clip-rule="evenodd" d="M45.8113 40.9444C46.9811 39.4609 47.9728 37.8611 48.7752 36.1778V50.5949L53.7615 50.5949V25.3387H65.5866L89.237 50.5949H97.0023L72.4934 25.3387H81.6351V20.2875H67.5916L48.7752 0.897354V20.2875H30.9558V25.3387H45.1754C45.1754 29.6468 43.7236 33.8299 41.0529 37.2172C38.3821 40.6044 34.6473 42.9994 30.4475 44.0178C26.2477 45.0362 21.8264 44.6191 17.8929 42.8334C13.9595 41.0476 10.7418 37.9968 8.75609 34.1703C6.77041 30.3437 6.13184 25.9633 6.94281 21.7318C7.75378 17.5002 9.96729 13.6628 13.2282 10.8352C16.4892 8.00752 20.6085 6.35355 24.9255 6.13859C29.2424 5.92363 33.5066 7.16014 37.0341 9.64975L40.5315 4.72688C35.8972 1.45608 30.2949 -0.168417 24.6235 0.113995C18.952 0.396407 13.5401 2.56936 9.2559 6.28426C4.97174 9.99916 2.06367 15.0407 0.998234 20.6C-0.0672034 26.1593 0.771746 31.9142 3.38049 36.9414C5.98924 41.9686 10.2166 45.9768 15.3843 48.3229C20.552 50.6689 26.3606 51.2169 31.8782 49.8789C37.3958 48.5409 42.3026 45.3945 45.8113 40.9444ZM53.7615 20.2875H60.8565L53.7615 12.7107V20.2875Z" fill="white"/>
</svg>
