<svg width="29" height="18" viewBox="0 0 29 18" fill="none" xmlns="http://www.w3.org/2000/svg">
<path fill-rule="evenodd" clip-rule="evenodd" d="M14.5451 13.3253C14.8694 12.9141 15.1442 12.4707 15.3667 12.0041V16L16.7486 16V9.00008H20.0262L26.581 16H28.7333L21.9405 9.00008H24.4741V7.60008H20.5819L15.3667 2.22579V7.60008H10.4278V9.00008H14.3689C14.3689 10.1941 13.9665 11.3535 13.2263 12.2922C12.4861 13.2311 11.4509 13.8948 10.2869 14.1771C9.12288 14.4594 7.89748 14.3438 6.80728 13.8488C5.71707 13.3539 4.82526 12.5083 4.27491 11.4478C3.72455 10.3872 3.54757 9.17312 3.77233 8.00031C3.9971 6.82749 4.6106 5.76392 5.5144 4.98021C6.41821 4.1965 7.55993 3.73808 8.75641 3.6785C9.95288 3.61892 11.1348 3.96163 12.1124 4.65166L13.0818 3.28723C11.7973 2.3807 10.2446 1.93045 8.67271 2.00872C7.1008 2.087 5.60083 2.68925 4.41343 3.71888C3.22603 4.7485 2.42003 6.1458 2.12473 7.68662C1.82944 9.22745 2.06196 10.8225 2.785 12.2158C3.50804 13.6092 4.67969 14.7201 6.11198 15.3703C7.54427 16.0205 9.15418 16.1724 10.6834 15.8016C12.2127 15.4307 13.5727 14.5587 14.5451 13.3253ZM16.7486 7.60008H18.7152L16.7486 5.49998V7.60008Z" fill="#BC9B73"/>
<path fill-rule="evenodd" clip-rule="evenodd" d="M0 0H0.399967H0.4H22.8V0.4H0.4V17.6H22.8V18H0.4V18H0V0Z" fill="#BC9B73"/>
</svg>
